<svg width="24" height="23" viewBox="0 0 24 23" fill="none" xmlns="http://www.w3.org/2000/svg">
<path fill-rule="evenodd" clip-rule="evenodd" d="M5.27563 6.86567C5.27563 3.22178 8.28967 0.25 12.0024 0.25C15.7151 0.25 18.7291 3.22178 18.7291 6.86567C18.7291 10.5096 15.7151 13.4813 12.0024 13.4813C8.28967 13.4813 5.27563 10.5096 5.27563 6.86567ZM12.0024 2.49627C9.56019 2.49627 7.56632 4.45267 7.56632 6.86567C7.56632 9.27868 9.56019 11.2351 12.0024 11.2351C14.4445 11.2351 16.4384 9.27868 16.4384 6.86567C16.4384 4.45267 14.4445 2.49627 12.0024 2.49627Z" fill="white"/>
<path d="M1.87423 22.6514L0.359375 20.9638C3.59864 18.2305 7.72831 16.7256 12.0023 16.7276C16.2817 16.7276 20.4057 18.2302 23.6454 20.9638L22.1305 22.6514C19.3095 20.2778 15.7179 18.9722 12.0023 18.9739C10.1914 18.9739 8.41211 19.2829 6.73751 19.8737C4.97146 20.4967 3.32181 21.4333 1.87423 22.6514Z" fill="white"/>
</svg>
