<svg width="40" height="27" viewBox="0 0 40 27" fill="none" xmlns="http://www.w3.org/2000/svg">
<g clip-path="url(#clip0_9_101)">
<mask id="mask0_9_101" style="mask-type:luminance" maskUnits="userSpaceOnUse" x="0" y="0" width="27" height="27">
<path d="M27 27H0V0H27V27Z" fill="white"/>
</mask>
<g mask="url(#mask0_9_101)">
<path d="M12.9978 26.2581C5.9137 26.2581 0.172852 20.515 0.172852 13.4293C0.172852 6.34309 5.91421 0.598633 12.9978 0.598633C13.3406 0.598633 13.6803 0.611947 14.0164 0.638354C7.40886 1.15764 2.2081 6.68663 2.2081 13.4296C2.2081 20.1726 7.40899 25.6997 14.0164 26.219C13.6804 26.2454 13.3406 26.2581 12.9978 26.2581Z" fill="#D5B04F"/>
<path fill-rule="evenodd" clip-rule="evenodd" d="M11.1483 26.1254C10.329 26.007 9.53503 25.8111 8.7735 25.5454C9.31651 25.5133 9.96405 25.4941 10.6618 25.4918C11.3636 25.7463 12.0933 25.9423 12.846 26.0718C12.3535 26.1013 11.7742 26.1201 11.1483 26.1254ZM8.78545 24.6556C7.99965 24.6556 7.27478 24.6332 6.68068 24.596C6.42754 24.4524 6.18009 24.3011 5.93803 24.1412C6.40826 24.089 7.06129 24.0502 7.81246 24.0319C8.13862 24.2546 8.47436 24.4632 8.82116 24.6556C8.80914 24.6556 8.7975 24.6556 8.78545 24.6556ZM6.54166 23.1818C5.79881 23.1752 5.12357 23.1482 4.58183 23.1083C4.41687 22.9646 4.25471 22.8172 4.09733 22.6654C4.58247 22.6131 5.25497 22.5751 6.02336 22.5581C6.24207 22.7741 6.46874 22.9818 6.70248 23.1818C6.64902 23.1816 6.59448 23.1822 6.54166 23.1818ZM4.99687 21.712C4.30454 21.7058 3.67015 21.6821 3.14824 21.6464C3.01891 21.4915 2.89498 21.3328 2.77295 21.1717C3.29335 21.1251 3.97577 21.0921 4.74073 21.0804C4.90101 21.2957 5.06595 21.5073 5.23912 21.712C5.158 21.7123 5.07642 21.7127 4.99687 21.712ZM4.16488 20.2422C3.38905 20.2407 2.67473 20.2183 2.09188 20.1806C1.99184 20.0193 1.89495 19.856 1.80198 19.69C2.34217 19.6468 3.02887 19.6169 3.79155 19.6086C3.91007 19.8239 4.03458 20.0347 4.16488 20.2422ZM2.97947 18.7704C2.38008 18.7704 1.81573 18.7572 1.31752 18.7347C1.23466 18.5524 1.15768 18.3672 1.08321 18.1805C1.63559 18.1507 2.28342 18.1348 2.9795 18.1348C3.01967 18.1348 3.05878 18.1347 3.09864 18.1348C3.18307 18.349 3.27324 18.5601 3.36869 18.7684C3.24086 18.7696 3.11089 18.7704 2.97947 18.7704ZM2.04422 17.2986C1.59113 17.2986 1.15962 17.2901 0.759508 17.2768C0.698972 17.0839 0.644271 16.8876 0.592715 16.6909C1.03768 16.6738 1.52777 16.663 2.04422 16.663C2.24067 16.663 2.43207 16.6644 2.62006 16.667C2.67488 16.8779 2.73561 17.0861 2.80075 17.2927C2.5565 17.2972 2.3039 17.2986 2.04422 17.2986ZM0.924331 15.8269C0.742777 15.8253 0.568818 15.8208 0.396154 15.8169C0.357902 15.6137 0.325421 15.4097 0.296873 15.2032C0.614071 15.1953 0.947396 15.1913 1.29369 15.1913C1.65426 15.1913 2.00127 15.1966 2.33016 15.2052C2.35832 15.4087 2.39185 15.6107 2.42944 15.811C2.07159 15.8213 1.69085 15.8269 1.29366 15.8269C1.16846 15.8269 1.04627 15.828 0.924331 15.8269ZM1.29366 14.3571C0.914349 14.3571 0.549222 14.3526 0.205532 14.3432C0.191395 14.1422 0.182512 13.9408 0.177734 13.7374C0.529651 13.7274 0.903871 13.7215 1.29362 13.7215C1.61198 13.7215 1.91866 13.7247 2.21299 13.7314C2.21775 13.9382 2.22635 14.1428 2.24079 14.3471C1.93817 14.3543 1.622 14.3571 1.29366 14.3571ZM1.29366 12.8853C0.906883 12.8853 0.535243 12.8792 0.185646 12.8694C0.19438 12.6662 0.20728 12.4643 0.225357 12.2636C0.563277 12.2545 0.921631 12.2497 1.2936 12.2497C1.62984 12.2497 1.95346 12.2541 2.26258 12.2616C2.24426 12.4647 2.22964 12.6696 2.22088 12.8754C1.92419 12.8822 1.61489 12.8853 1.29366 12.8853ZM1.29366 11.4135C0.960275 11.4135 0.639258 11.409 0.332613 11.4016C0.365444 11.1948 0.403207 10.9893 0.445798 10.7859C0.718353 10.7801 1.00106 10.7779 1.29368 10.7779C1.71025 10.7779 2.10832 10.7845 2.48111 10.7958C2.43948 10.9954 2.40018 11.1967 2.36794 11.3996C2.02819 11.4088 1.66778 11.4135 1.29366 11.4135ZM0.924331 9.94174C0.83151 9.94092 0.744906 9.93921 0.654285 9.93777C0.714025 9.726 0.778691 9.51531 0.848876 9.30814C0.994841 9.30657 1.14287 9.30616 1.29366 9.30616C1.86173 9.30616 2.39722 9.31753 2.87619 9.33794C2.81194 9.52902 2.75087 9.72094 2.69549 9.91593C2.2639 9.93179 1.79068 9.94175 1.29367 9.94175C1.16848 9.94175 1.04627 9.94283 0.924331 9.94174ZM2.32418 8.47194C1.92103 8.47194 1.53482 8.46669 1.17252 8.45605C1.25899 8.25054 1.34984 8.04618 1.44654 7.84628C1.72819 7.84013 2.02085 7.83635 2.32416 7.83635C2.7288 7.83635 3.11618 7.84152 3.47982 7.85224C3.38305 8.05248 3.29232 8.25614 3.2058 8.46201C2.92287 8.46821 2.62895 8.47194 2.32418 8.47194ZM2.69947 7.00017C2.42475 7.00017 2.15858 6.9973 1.90128 6.99222C2.02464 6.77986 2.1555 6.57097 2.29046 6.36656C2.42479 6.36524 2.56117 6.36458 2.6995 6.36458C3.27698 6.36458 3.82117 6.3773 4.30586 6.39834C4.18067 6.58912 4.05958 6.78264 3.94447 6.9803C3.55556 6.99279 3.13764 7.00017 2.69947 7.00017ZM4.38525 5.5284C3.861 5.5284 3.36416 5.51813 2.91392 5.50059C3.07433 5.29669 3.24206 5.09838 3.4143 4.90472C3.724 4.89719 4.04831 4.89281 4.38525 4.89281C4.75512 4.89281 5.11132 4.89769 5.44758 4.90671C5.26924 5.10732 5.09696 5.31285 4.93132 5.52443C4.75278 5.5268 4.57132 5.5284 4.38525 5.5284ZM5.3205 4.0586C4.9492 4.0586 4.59157 4.05378 4.25423 4.04469C4.48478 3.8296 4.72313 3.6228 4.96906 3.42499C5.08466 3.42407 5.20202 3.42303 5.32052 3.42303C5.91284 3.42303 6.47047 3.43472 6.96462 3.4568C6.73163 3.64572 6.5046 3.84219 6.2855 4.0467C5.97756 4.05414 5.65535 4.0586 5.3205 4.0586ZM7.66354 2.58683C7.13616 2.58683 6.6366 2.57676 6.18426 2.55902C6.53158 2.34067 6.88981 2.13812 7.25847 1.95322C7.3915 1.95193 7.52659 1.95126 7.66354 1.95126C8.22771 1.95126 8.75986 1.9629 9.23616 1.98304C8.875 2.16655 8.52222 2.36718 8.18177 2.58288C8.01211 2.58501 7.83992 2.58683 7.66354 2.58683ZM10.7989 1.11505C10.3271 1.11505 9.87798 1.10558 9.46452 1.09122C10.5869 0.770134 11.7734 0.598633 12.9989 0.598633C13.2862 0.598633 13.5702 0.607872 13.8528 0.626439C13.8923 0.631838 13.9302 0.636729 13.966 0.642331C13.0981 0.714032 12.2545 0.873146 11.4442 1.10909C11.2343 1.11239 11.0195 1.11505 10.7989 1.11505Z" fill="#C89C31"/>
<path d="M26.3707 13.4796C26.3707 6.39377 20.628 0.649414 13.5442 0.649414C6.46042 0.649414 0.717773 6.39377 0.717773 13.4796C0.717773 20.5655 6.46042 26.3099 13.5442 26.3099C20.628 26.3099 26.3707 20.5655 26.3707 13.4796Z" fill="#EED175"/>
<path d="M26.0461 13.3852C26.0461 6.48035 20.4502 0.882812 13.5475 0.882812C6.64471 0.882812 1.04883 6.48035 1.04883 13.3852C1.04883 20.29 6.64471 25.8875 13.5475 25.8875C20.4502 25.8875 26.0461 20.29 26.0461 13.3852Z" fill="#C89C31"/>
<path d="M25.643 13.3563C25.643 6.67214 20.2259 1.25342 13.5437 1.25342C6.86145 1.25342 1.44434 6.67214 1.44434 13.3563C1.44434 20.0405 6.86145 25.4593 13.5437 25.4593C20.2259 25.4593 25.643 20.0405 25.643 13.3563Z" fill="#EBC859"/>
<path d="M20.8838 3.90436C26.2042 7.94869 27.241 15.5414 23.1978 20.8631C22.1059 22.3005 20.7533 23.4236 19.2585 24.22C20.2194 23.5015 21.0999 22.6398 21.8621 21.6365C26.2483 15.8631 25.1359 7.63509 19.3788 3.25905C18.8231 2.83659 18.2444 2.46628 17.6484 2.14575C18.7821 2.55279 19.8739 3.13663 20.8838 3.90436Z" fill="#F7E587"/>
<g opacity="0.600823" filter="url(#filter0_f_9_101)">
<path d="M5.61211 5.35479C8.2129 12.0106 10.8154 18.6657 13.4151 25.322C11.3476 25.4173 9.2648 24.9384 7.45622 23.9457C5.65534 19.3406 3.85483 14.7353 2.05859 10.1284C2.71886 8.16375 3.93758 6.41564 5.50307 5.07568C5.53942 5.16872 5.57577 5.26175 5.61211 5.35479Z" fill="white"/>
</g>
</g>
</g>
<g clip-path="url(#clip1_9_101)">
<mask id="mask1_9_101" style="mask-type:luminance" maskUnits="userSpaceOnUse" x="6" y="0" width="27" height="27">
<path d="M33 27H6V0H33V27Z" fill="white"/>
</mask>
<g mask="url(#mask1_9_101)">
<path d="M18.9978 26.2581C11.9137 26.2581 6.17285 20.515 6.17285 13.4293C6.17285 6.34309 11.9142 0.598633 18.9978 0.598633C19.3406 0.598633 19.6803 0.611947 20.0164 0.638354C13.4089 1.15764 8.2081 6.68663 8.2081 13.4296C8.2081 20.1726 13.409 25.6997 20.0164 26.219C19.6804 26.2454 19.3406 26.2581 18.9978 26.2581Z" fill="#D5B04F"/>
<path fill-rule="evenodd" clip-rule="evenodd" d="M17.1483 26.1254C16.329 26.007 15.535 25.8111 14.7735 25.5454C15.3165 25.5133 15.9641 25.4941 16.6618 25.4918C17.3636 25.7463 18.0933 25.9423 18.846 26.0718C18.3535 26.1013 17.7742 26.1201 17.1483 26.1254ZM14.7854 24.6556C13.9997 24.6556 13.2748 24.6332 12.6807 24.596C12.4275 24.4524 12.1801 24.3011 11.938 24.1412C12.4083 24.089 13.0613 24.0502 13.8125 24.0319C14.1386 24.2546 14.4744 24.4632 14.8212 24.6556C14.8091 24.6556 14.7975 24.6556 14.7854 24.6556ZM12.5417 23.1818C11.7988 23.1752 11.1236 23.1482 10.5818 23.1083C10.4169 22.9646 10.2547 22.8172 10.0973 22.6654C10.5825 22.6131 11.255 22.5751 12.0234 22.5581C12.2421 22.7741 12.4687 22.9818 12.7025 23.1818C12.649 23.1816 12.5945 23.1822 12.5417 23.1818ZM10.9969 21.712C10.3045 21.7058 9.67015 21.6821 9.14824 21.6464C9.01891 21.4915 8.89498 21.3328 8.77295 21.1717C9.29335 21.1251 9.97577 21.0921 10.7407 21.0804C10.901 21.2957 11.066 21.5073 11.2391 21.712C11.158 21.7123 11.0764 21.7127 10.9969 21.712ZM10.1649 20.2422C9.38905 20.2407 8.67473 20.2183 8.09188 20.1806C7.99184 20.0193 7.89495 19.856 7.80198 19.69C8.34217 19.6468 9.02887 19.6169 9.79155 19.6086C9.91007 19.8239 10.0346 20.0347 10.1649 20.2422ZM8.97947 18.7704C8.38008 18.7704 7.81573 18.7572 7.31752 18.7347C7.23466 18.5524 7.15768 18.3672 7.08321 18.1805C7.63559 18.1507 8.28342 18.1348 8.9795 18.1348C9.01967 18.1348 9.05878 18.1347 9.09864 18.1348C9.18307 18.349 9.27324 18.5601 9.36869 18.7684C9.24086 18.7696 9.11089 18.7704 8.97947 18.7704ZM8.04422 17.2986C7.59113 17.2986 7.15962 17.2901 6.75951 17.2768C6.69897 17.0839 6.64427 16.8876 6.59272 16.6909C7.03768 16.6738 7.52777 16.663 8.04422 16.663C8.24067 16.663 8.43207 16.6644 8.62006 16.667C8.67488 16.8779 8.73561 17.0861 8.80075 17.2927C8.5565 17.2972 8.3039 17.2986 8.04422 17.2986ZM6.92433 15.8269C6.74278 15.8253 6.56882 15.8208 6.39615 15.8169C6.3579 15.6137 6.32542 15.4097 6.29687 15.2032C6.61407 15.1953 6.9474 15.1913 7.29369 15.1913C7.65426 15.1913 8.00127 15.1966 8.33016 15.2052C8.35832 15.4087 8.39185 15.6107 8.42944 15.811C8.07159 15.8213 7.69085 15.8269 7.29366 15.8269C7.16846 15.8269 7.04627 15.828 6.92433 15.8269ZM7.29366 14.3571C6.91435 14.3571 6.54922 14.3526 6.20553 14.3432C6.1914 14.1422 6.18251 13.9408 6.17773 13.7374C6.52965 13.7274 6.90387 13.7215 7.29362 13.7215C7.61198 13.7215 7.91866 13.7247 8.21299 13.7314C8.21775 13.9382 8.22635 14.1428 8.24079 14.3471C7.93817 14.3543 7.622 14.3571 7.29366 14.3571ZM7.29366 12.8853C6.90688 12.8853 6.53524 12.8792 6.18565 12.8694C6.19438 12.6662 6.20728 12.4643 6.22536 12.2636C6.56328 12.2545 6.92163 12.2497 7.2936 12.2497C7.62984 12.2497 7.95346 12.2541 8.26258 12.2616C8.24426 12.4647 8.22964 12.6696 8.22088 12.8754C7.92419 12.8822 7.61489 12.8853 7.29366 12.8853ZM7.29366 11.4135C6.96028 11.4135 6.63926 11.409 6.33261 11.4016C6.36544 11.1948 6.40321 10.9893 6.4458 10.7859C6.71835 10.7801 7.00106 10.7779 7.29368 10.7779C7.71025 10.7779 8.10832 10.7845 8.48111 10.7958C8.43948 10.9954 8.40018 11.1967 8.36794 11.3996C8.02819 11.4088 7.66778 11.4135 7.29366 11.4135ZM6.92433 9.94174C6.83151 9.94092 6.74491 9.93921 6.65429 9.93777C6.71403 9.726 6.77869 9.51531 6.84888 9.30814C6.99484 9.30657 7.14287 9.30616 7.29366 9.30616C7.86173 9.30616 8.39722 9.31753 8.87619 9.33794C8.81194 9.52902 8.75087 9.72094 8.69549 9.91593C8.2639 9.93179 7.79068 9.94175 7.29367 9.94175C7.16848 9.94175 7.04627 9.94283 6.92433 9.94174ZM8.32418 8.47194C7.92103 8.47194 7.53482 8.46669 7.17252 8.45605C7.25899 8.25054 7.34984 8.04618 7.44654 7.84628C7.72819 7.84013 8.02085 7.83635 8.32416 7.83635C8.7288 7.83635 9.11618 7.84152 9.47982 7.85224C9.38305 8.05248 9.29232 8.25614 9.2058 8.46201C8.92287 8.46821 8.62895 8.47194 8.32418 8.47194ZM8.69947 7.00017C8.42475 7.00017 8.15858 6.9973 7.90128 6.99222C8.02464 6.77986 8.1555 6.57097 8.29046 6.36656C8.42479 6.36524 8.56117 6.36458 8.6995 6.36458C9.27698 6.36458 9.82117 6.3773 10.3059 6.39834C10.1807 6.58912 10.0596 6.78264 9.94447 6.9803C9.55556 6.99279 9.13764 7.00017 8.69947 7.00017ZM10.3853 5.5284C9.861 5.5284 9.36416 5.51813 8.91392 5.50059C9.07433 5.29669 9.24206 5.09838 9.4143 4.90472C9.724 4.89719 10.0483 4.89281 10.3853 4.89281C10.7551 4.89281 11.1113 4.89769 11.4476 4.90671C11.2692 5.10732 11.097 5.31285 10.9313 5.52443C10.7528 5.5268 10.5713 5.5284 10.3853 5.5284ZM11.3205 4.0586C10.9492 4.0586 10.5916 4.05378 10.2542 4.04469C10.4848 3.8296 10.7231 3.6228 10.9691 3.42499C11.0847 3.42407 11.202 3.42303 11.3205 3.42303C11.9128 3.42303 12.4705 3.43472 12.9646 3.4568C12.7316 3.64572 12.5046 3.84219 12.2855 4.0467C11.9776 4.05414 11.6554 4.0586 11.3205 4.0586ZM13.6635 2.58683C13.1362 2.58683 12.6366 2.57676 12.1843 2.55902C12.5316 2.34067 12.8898 2.13812 13.2585 1.95322C13.3915 1.95193 13.5266 1.95126 13.6635 1.95126C14.2277 1.95126 14.7599 1.9629 15.2362 1.98304C14.875 2.16655 14.5222 2.36718 14.1818 2.58288C14.0121 2.58501 13.8399 2.58683 13.6635 2.58683ZM16.7989 1.11505C16.3271 1.11505 15.878 1.10558 15.4645 1.09122C16.5869 0.770134 17.7734 0.598633 18.9989 0.598633C19.2862 0.598633 19.5702 0.607872 19.8528 0.626439C19.8923 0.631838 19.9302 0.636729 19.966 0.642331C19.0981 0.714032 18.2545 0.873146 17.4442 1.10909C17.2343 1.11239 17.0195 1.11505 16.7989 1.11505Z" fill="#C89C31"/>
<path d="M32.3707 13.4796C32.3707 6.39377 26.628 0.649414 19.5442 0.649414C12.4604 0.649414 6.71777 6.39377 6.71777 13.4796C6.71777 20.5655 12.4604 26.3099 19.5442 26.3099C26.628 26.3099 32.3707 20.5655 32.3707 13.4796Z" fill="#EED175"/>
<path d="M32.0461 13.3852C32.0461 6.48035 26.4502 0.882812 19.5475 0.882812C12.6447 0.882812 7.04883 6.48035 7.04883 13.3852C7.04883 20.29 12.6447 25.8875 19.5475 25.8875C26.4502 25.8875 32.0461 20.29 32.0461 13.3852Z" fill="#C89C31"/>
<path d="M31.643 13.3563C31.643 6.67214 26.2259 1.25342 19.5437 1.25342C12.8614 1.25342 7.44434 6.67214 7.44434 13.3563C7.44434 20.0405 12.8614 25.4593 19.5437 25.4593C26.2259 25.4593 31.643 20.0405 31.643 13.3563Z" fill="#EBC859"/>
<path d="M26.8838 3.90436C32.2042 7.94869 33.241 15.5414 29.1978 20.8631C28.1059 22.3005 26.7533 23.4236 25.2585 24.22C26.2194 23.5015 27.0999 22.6398 27.8621 21.6365C32.2483 15.8631 31.1359 7.63509 25.3788 3.25905C24.8231 2.83659 24.2444 2.46628 23.6484 2.14575C24.7821 2.55279 25.8739 3.13663 26.8838 3.90436Z" fill="#F7E587"/>
<g opacity="0.600823" filter="url(#filter1_f_9_101)">
<path d="M11.6121 5.35479C14.2129 12.0106 16.8154 18.6657 19.4151 25.322C17.3476 25.4173 15.2648 24.9384 13.4562 23.9457C11.6553 19.3406 9.85483 14.7353 8.05859 10.1284C8.71886 8.16375 9.93758 6.41564 11.5031 5.07568C11.5394 5.16872 11.5758 5.26175 11.6121 5.35479Z" fill="white"/>
</g>
</g>
</g>
<g clip-path="url(#clip2_9_101)">
<mask id="mask2_9_101" style="mask-type:luminance" maskUnits="userSpaceOnUse" x="13" y="0" width="27" height="27">
<path d="M40 27H13V0H40V27Z" fill="white"/>
</mask>
<g mask="url(#mask2_9_101)">
<path d="M25.9978 26.2581C18.9137 26.2581 13.1729 20.515 13.1729 13.4293C13.1729 6.34309 18.9142 0.598633 25.9978 0.598633C26.3406 0.598633 26.6803 0.611947 27.0164 0.638354C20.4089 1.15764 15.2081 6.68663 15.2081 13.4296C15.2081 20.1726 20.409 25.6997 27.0164 26.219C26.6804 26.2454 26.3406 26.2581 25.9978 26.2581Z" fill="#D5B04F"/>
<path fill-rule="evenodd" clip-rule="evenodd" d="M24.1483 26.1254C23.329 26.007 22.535 25.8111 21.7735 25.5454C22.3165 25.5133 22.9641 25.4941 23.6618 25.4918C24.3636 25.7463 25.0933 25.9423 25.846 26.0718C25.3535 26.1013 24.7742 26.1201 24.1483 26.1254ZM21.7854 24.6556C20.9997 24.6556 20.2748 24.6332 19.6807 24.596C19.4275 24.4524 19.1801 24.3011 18.938 24.1412C19.4083 24.089 20.0613 24.0502 20.8125 24.0319C21.1386 24.2546 21.4744 24.4632 21.8212 24.6556C21.8091 24.6556 21.7975 24.6556 21.7854 24.6556ZM19.5417 23.1818C18.7988 23.1752 18.1236 23.1482 17.5818 23.1083C17.4169 22.9646 17.2547 22.8172 17.0973 22.6654C17.5825 22.6131 18.255 22.5751 19.0234 22.5581C19.2421 22.7741 19.4687 22.9818 19.7025 23.1818C19.649 23.1816 19.5945 23.1822 19.5417 23.1818ZM17.9969 21.712C17.3045 21.7058 16.6702 21.6821 16.1482 21.6464C16.0189 21.4915 15.895 21.3328 15.773 21.1717C16.2934 21.1251 16.9758 21.0921 17.7407 21.0804C17.901 21.2957 18.066 21.5073 18.2391 21.712C18.158 21.7123 18.0764 21.7127 17.9969 21.712ZM17.1649 20.2422C16.3891 20.2407 15.6747 20.2183 15.0919 20.1806C14.9918 20.0193 14.895 19.856 14.802 19.69C15.3422 19.6468 16.0289 19.6169 16.7916 19.6086C16.9101 19.8239 17.0346 20.0347 17.1649 20.2422ZM15.9795 18.7704C15.3801 18.7704 14.8157 18.7572 14.3175 18.7347C14.2347 18.5524 14.1577 18.3672 14.0832 18.1805C14.6356 18.1507 15.2834 18.1348 15.9795 18.1348C16.0197 18.1348 16.0588 18.1347 16.0986 18.1348C16.1831 18.349 16.2732 18.5601 16.3687 18.7684C16.2409 18.7696 16.1109 18.7704 15.9795 18.7704ZM15.0442 17.2986C14.5911 17.2986 14.1596 17.2901 13.7595 17.2768C13.699 17.0839 13.6443 16.8876 13.5927 16.6909C14.0377 16.6738 14.5278 16.663 15.0442 16.663C15.2407 16.663 15.4321 16.6644 15.6201 16.667C15.6749 16.8779 15.7356 17.0861 15.8008 17.2927C15.5565 17.2972 15.3039 17.2986 15.0442 17.2986ZM13.9243 15.8269C13.7428 15.8253 13.5688 15.8208 13.3962 15.8169C13.3579 15.6137 13.3254 15.4097 13.2969 15.2032C13.6141 15.1953 13.9474 15.1913 14.2937 15.1913C14.6543 15.1913 15.0013 15.1966 15.3302 15.2052C15.3583 15.4087 15.3919 15.6107 15.4294 15.811C15.0716 15.8213 14.6909 15.8269 14.2937 15.8269C14.1685 15.8269 14.0463 15.828 13.9243 15.8269ZM14.2937 14.3571C13.9143 14.3571 13.5492 14.3526 13.2055 14.3432C13.1914 14.1422 13.1825 13.9408 13.1777 13.7374C13.5297 13.7274 13.9039 13.7215 14.2936 13.7215C14.612 13.7215 14.9187 13.7247 15.213 13.7314C15.2178 13.9382 15.2264 14.1428 15.2408 14.3471C14.9382 14.3543 14.622 14.3571 14.2937 14.3571ZM14.2937 12.8853C13.9069 12.8853 13.5352 12.8792 13.1856 12.8694C13.1944 12.6662 13.2073 12.4643 13.2254 12.2636C13.5633 12.2545 13.9216 12.2497 14.2936 12.2497C14.6298 12.2497 14.9535 12.2541 15.2626 12.2616C15.2443 12.4647 15.2296 12.6696 15.2209 12.8754C14.9242 12.8822 14.6149 12.8853 14.2937 12.8853ZM14.2937 11.4135C13.9603 11.4135 13.6393 11.409 13.3326 11.4016C13.3654 11.1948 13.4032 10.9893 13.4458 10.7859C13.7184 10.7801 14.0011 10.7779 14.2937 10.7779C14.7103 10.7779 15.1083 10.7845 15.4811 10.7958C15.4395 10.9954 15.4002 11.1967 15.3679 11.3996C15.0282 11.4088 14.6678 11.4135 14.2937 11.4135ZM13.9243 9.94174C13.8315 9.94092 13.7449 9.93921 13.6543 9.93777C13.714 9.726 13.7787 9.51531 13.8489 9.30814C13.9948 9.30657 14.1429 9.30616 14.2937 9.30616C14.8617 9.30616 15.3972 9.31753 15.8762 9.33794C15.8119 9.52902 15.7509 9.72094 15.6955 9.91593C15.2639 9.93179 14.7907 9.94175 14.2937 9.94175C14.1685 9.94175 14.0463 9.94283 13.9243 9.94174ZM15.3242 8.47194C14.921 8.47194 14.5348 8.46669 14.1725 8.45605C14.259 8.25054 14.3498 8.04618 14.4465 7.84628C14.7282 7.84013 15.0209 7.83635 15.3242 7.83635C15.7288 7.83635 16.1162 7.84152 16.4798 7.85224C16.3831 8.05248 16.2923 8.25614 16.2058 8.46201C15.9229 8.46821 15.629 8.47194 15.3242 8.47194ZM15.6995 7.00017C15.4248 7.00017 15.1586 6.9973 14.9013 6.99222C15.0246 6.77986 15.1555 6.57097 15.2905 6.36656C15.4248 6.36524 15.5612 6.36458 15.6995 6.36458C16.277 6.36458 16.8212 6.3773 17.3059 6.39834C17.1807 6.58912 17.0596 6.78264 16.9445 6.9803C16.5556 6.99279 16.1376 7.00017 15.6995 7.00017ZM17.3853 5.5284C16.861 5.5284 16.3642 5.51813 15.9139 5.50059C16.0743 5.29669 16.2421 5.09838 16.4143 4.90472C16.724 4.89719 17.0483 4.89281 17.3853 4.89281C17.7551 4.89281 18.1113 4.89769 18.4476 4.90671C18.2692 5.10732 18.097 5.31285 17.9313 5.52443C17.7528 5.5268 17.5713 5.5284 17.3853 5.5284ZM18.3205 4.0586C17.9492 4.0586 17.5916 4.05378 17.2542 4.04469C17.4848 3.8296 17.7231 3.6228 17.9691 3.42499C18.0847 3.42407 18.202 3.42303 18.3205 3.42303C18.9128 3.42303 19.4705 3.43472 19.9646 3.4568C19.7316 3.64572 19.5046 3.84219 19.2855 4.0467C18.9776 4.05414 18.6554 4.0586 18.3205 4.0586ZM20.6635 2.58683C20.1362 2.58683 19.6366 2.57676 19.1843 2.55902C19.5316 2.34067 19.8898 2.13812 20.2585 1.95322C20.3915 1.95193 20.5266 1.95126 20.6635 1.95126C21.2277 1.95126 21.7599 1.9629 22.2362 1.98304C21.875 2.16655 21.5222 2.36718 21.1818 2.58288C21.0121 2.58501 20.8399 2.58683 20.6635 2.58683ZM23.7989 1.11505C23.3271 1.11505 22.878 1.10558 22.4645 1.09122C23.5869 0.770134 24.7734 0.598633 25.9989 0.598633C26.2862 0.598633 26.5702 0.607872 26.8528 0.626439C26.8923 0.631838 26.9302 0.636729 26.966 0.642331C26.0981 0.714032 25.2545 0.873146 24.4442 1.10909C24.2343 1.11239 24.0195 1.11505 23.7989 1.11505Z" fill="#C89C31"/>
<path d="M39.3707 13.4796C39.3707 6.39377 33.628 0.649414 26.5442 0.649414C19.4604 0.649414 13.7178 6.39377 13.7178 13.4796C13.7178 20.5655 19.4604 26.3099 26.5442 26.3099C33.628 26.3099 39.3707 20.5655 39.3707 13.4796Z" fill="#EED175"/>
<path d="M39.0461 13.3852C39.0461 6.48035 33.4502 0.882812 26.5475 0.882812C19.6447 0.882812 14.0488 6.48035 14.0488 13.3852C14.0488 20.29 19.6447 25.8875 26.5475 25.8875C33.4502 25.8875 39.0461 20.29 39.0461 13.3852Z" fill="#C89C31"/>
<path d="M38.643 13.3563C38.643 6.67214 33.2259 1.25342 26.5437 1.25342C19.8614 1.25342 14.4443 6.67214 14.4443 13.3563C14.4443 20.0405 19.8614 25.4593 26.5437 25.4593C33.2259 25.4593 38.643 20.0405 38.643 13.3563Z" fill="#EBC859"/>
<path d="M33.8838 3.90436C39.2042 7.94869 40.241 15.5414 36.1978 20.8631C35.1059 22.3005 33.7533 23.4236 32.2585 24.22C33.2194 23.5015 34.0999 22.6398 34.8621 21.6365C39.2483 15.8631 38.1359 7.63509 32.3788 3.25905C31.8231 2.83659 31.2444 2.46628 30.6484 2.14575C31.7821 2.55279 32.8739 3.13663 33.8838 3.90436Z" fill="#F7E587"/>
<g opacity="0.600823" filter="url(#filter2_f_9_101)">
<path d="M18.6121 5.35479C21.2129 12.0106 23.8154 18.6657 26.4151 25.322C24.3476 25.4173 22.2648 24.9384 20.4562 23.9457C18.6553 19.3406 16.8548 14.7353 15.0586 10.1284C15.7189 8.16375 16.9376 6.41564 18.5031 5.07568C18.5394 5.16872 18.5758 5.26175 18.6121 5.35479Z" fill="white"/>
</g>
</g>
</g>
<defs>
<filter id="filter0_f_9_101" x="-41.0158" y="-37.9987" width="97.5052" height="106.407" filterUnits="userSpaceOnUse" color-interpolation-filters="sRGB">
<feFlood flood-opacity="0" result="BackgroundImageFix"/>
<feBlend mode="normal" in="SourceGraphic" in2="BackgroundImageFix" result="shape"/>
<feGaussianBlur stdDeviation="21.5372" result="effect1_foregroundBlur_9_101"/>
</filter>
<filter id="filter1_f_9_101" x="-35.0158" y="-37.9987" width="97.5052" height="106.407" filterUnits="userSpaceOnUse" color-interpolation-filters="sRGB">
<feFlood flood-opacity="0" result="BackgroundImageFix"/>
<feBlend mode="normal" in="SourceGraphic" in2="BackgroundImageFix" result="shape"/>
<feGaussianBlur stdDeviation="21.5372" result="effect1_foregroundBlur_9_101"/>
</filter>
<filter id="filter2_f_9_101" x="-28.0158" y="-37.9987" width="97.5052" height="106.407" filterUnits="userSpaceOnUse" color-interpolation-filters="sRGB">
<feFlood flood-opacity="0" result="BackgroundImageFix"/>
<feBlend mode="normal" in="SourceGraphic" in2="BackgroundImageFix" result="shape"/>
<feGaussianBlur stdDeviation="21.5372" result="effect1_foregroundBlur_9_101"/>
</filter>
<clipPath id="clip0_9_101">
<rect width="27" height="27" fill="white"/>
</clipPath>
<clipPath id="clip1_9_101">
<rect width="27" height="27" fill="white" transform="translate(6)"/>
</clipPath>
<clipPath id="clip2_9_101">
<rect width="27" height="27" fill="white" transform="translate(13)"/>
</clipPath>
</defs>
</svg>
