<svg width="24" height="24" viewBox="0 0 24 24" fill="none" xmlns="http://www.w3.org/2000/svg">
<path d="M22.9988 9.94204C22.9832 9.16182 22.3563 8.54989 21.5603 8.54479C20.9203 8.5397 20.2778 8.54479 19.6378 8.54479C19.6352 8.54479 19.6326 8.54479 19.63 8.54479C19.604 8.34337 19.5728 8.14449 19.5285 7.94306C19.0993 5.95429 17.7908 4.19499 16.04 3.12411C14.2424 2.02518 11.9922 1.71412 9.95268 2.26996C7.95738 2.81304 6.21442 4.16949 5.23108 5.95684C4.78364 6.7651 4.50008 7.6371 4.37001 8.54479C3.73786 8.5397 3.10831 8.54479 2.47877 8.54479C1.66972 8.54479 1.02197 9.13633 1.00116 9.93694C0.998555 10.0619 1.00116 10.1894 1.00116 10.3143C1.00116 11.7523 1.00116 13.1904 1.00116 14.6284C1.00116 14.8196 1.00116 15.0134 1.00116 15.2046C1.00376 15.8523 1.43039 16.4795 2.10676 16.6095C2.41894 16.6707 2.74932 16.6452 3.06669 16.6452C3.4543 16.6452 3.84192 16.6452 4.22953 16.6452C4.27375 16.6452 4.31798 16.6452 4.3622 16.6452C4.39082 16.6478 4.41943 16.6478 4.44805 16.6478C5.24669 16.6248 5.86063 16.0078 5.86583 15.225C5.86583 15.0491 5.86583 14.8732 5.86583 14.6972C5.86583 13.9578 5.86583 13.221 5.86583 12.4815C5.86583 11.7778 5.86583 11.0741 5.86583 10.3704C5.86583 10.2276 5.86843 10.0848 5.86583 9.94204C5.86583 9.90379 5.86323 9.863 5.85803 9.82475C5.85803 9.45504 5.86583 9.09298 5.91005 8.72582C5.9907 8.22098 6.12857 7.72889 6.31848 7.25464C6.44595 6.96907 6.59163 6.69115 6.75812 6.42344C6.85177 6.27555 6.94802 6.13022 7.05208 5.98743C7.06769 5.96704 7.0859 5.94409 7.10151 5.92114C7.0833 5.94154 7.07549 5.95174 7.0937 5.92879C7.10151 5.92114 7.10671 5.91094 7.11452 5.90329C7.11712 5.90074 7.11972 5.89564 7.12232 5.8931C7.13273 5.88035 7.15094 5.8472 7.16394 5.83955C7.16654 5.837 7.16134 5.84465 7.15354 5.85485C7.18996 5.80895 7.22898 5.76306 7.268 5.71971C7.48912 5.46219 7.72845 5.22252 7.98599 5.0007C8.05103 4.9446 8.11607 4.89106 8.1811 4.83751C8.19931 4.82222 8.21752 4.80692 8.23573 4.79417C8.24093 4.79162 8.24614 4.78652 8.25394 4.78142C8.39702 4.67688 8.5427 4.57744 8.69098 4.48565C9.00055 4.29188 9.32573 4.1236 9.66131 3.98081C10.1452 3.79213 10.6473 3.65955 11.1597 3.58306C11.7164 3.51676 12.2784 3.51676 12.8351 3.58306C13.3501 3.6621 13.8548 3.79723 14.3413 3.98336C14.6326 4.1083 14.9162 4.25108 15.1894 4.41426C15.3402 4.50605 15.4885 4.60039 15.6342 4.70238C15.655 4.71768 15.6784 4.73553 15.7018 4.75082C15.681 4.73298 15.6706 4.72533 15.694 4.74318C15.7018 4.75082 15.7122 4.75592 15.72 4.76357C15.7226 4.76612 15.7278 4.76867 15.7305 4.77122C15.7435 4.78142 15.7773 4.79927 15.7851 4.81202C15.7877 4.81457 15.7799 4.80947 15.7695 4.80182C15.8163 4.83751 15.8631 4.87576 15.9073 4.91401C16.1701 5.13073 16.4146 5.3653 16.641 5.61773C16.6982 5.68147 16.7528 5.74521 16.8074 5.80895C16.8231 5.8268 16.8387 5.84465 16.8517 5.8625C16.8543 5.8676 16.8595 5.8727 16.8647 5.88035C16.9713 6.02058 17.0728 6.16336 17.1664 6.3087C17.3641 6.61211 17.5358 6.93083 17.6815 7.25974C17.874 7.73399 18.0093 8.22608 18.0873 8.72837C18.1446 9.19752 18.1394 9.66412 18.1394 10.1358C18.1394 10.8191 18.1394 11.5025 18.1394 12.1832C18.1394 13.068 18.1394 13.9502 18.1394 14.8349C18.1394 15.61 18.1394 16.3877 18.1394 17.1628C18.1394 17.5223 18.142 17.8818 18.1394 18.2413C18.1394 18.2847 18.1368 18.328 18.1342 18.3714C18.1186 18.4428 18.1004 18.5116 18.0769 18.5805C18.0457 18.6467 18.0093 18.7105 17.9677 18.7691C17.9625 18.7768 17.9573 18.7844 17.9521 18.7921C17.9261 18.8201 17.9026 18.8507 17.874 18.8762C17.8454 18.9043 17.8142 18.9323 17.783 18.9578C17.783 18.9578 17.7804 18.9578 17.7804 18.9604C17.7153 19.0037 17.6477 19.042 17.5775 19.0751C17.502 19.1006 17.4266 19.121 17.3485 19.1363C16.9713 19.1694 16.5785 19.1388 16.2013 19.1388C15.6524 19.1388 15.1061 19.1388 14.5572 19.1388C14.3465 18.6187 13.9199 18.198 13.3918 17.9787C13.025 17.8283 12.6504 17.8104 12.2601 17.8104C11.987 17.8104 11.7138 17.8079 11.4407 17.8104C10.8658 17.813 10.2935 18.0348 9.89284 18.4479C9.40898 18.9476 9.22428 19.6054 9.33093 20.2786C9.42459 20.8701 9.83301 21.4106 10.3585 21.709C11.0245 22.0838 11.8361 21.9894 12.5749 21.9894C12.5879 21.9894 12.6009 21.9894 12.6139 21.9894C13.3111 21.9665 13.9173 21.6325 14.3257 21.0843C14.4219 20.9542 14.5 20.814 14.5598 20.6636C15.3975 20.6636 16.2351 20.6636 17.0728 20.6636C17.3746 20.6636 17.6789 20.6483 17.9677 20.5539C18.5712 20.3576 19.1071 19.9497 19.4063 19.3938C19.6014 19.0267 19.7028 18.6315 19.7054 18.2184C19.7054 18.1241 19.7054 18.0297 19.7054 17.9328C19.7054 17.5045 19.7054 17.0761 19.7054 16.6503C19.8719 16.6529 20.0384 16.6452 20.1997 16.6452C20.5873 16.6452 20.9723 16.6452 21.3599 16.6452C21.4198 16.6452 21.4796 16.6452 21.5394 16.6452C21.5525 16.6452 21.5681 16.6452 21.5811 16.6452C21.6045 16.6452 21.6305 16.6427 21.6539 16.6401C21.6539 16.6401 21.6539 16.6401 21.6565 16.6401C21.6565 16.6401 21.6565 16.6401 21.6591 16.6401C22.4187 16.5815 22.9962 15.9798 22.9988 15.2225C22.9988 15.0466 22.9988 14.8706 22.9988 14.6947C22.9988 13.9655 22.9988 13.2363 22.9988 12.5045C22.9988 11.7931 22.9988 11.0818 22.9988 10.3678C22.9988 10.2276 23.0014 10.0848 22.9988 9.94204ZM2.55941 15.1256C2.55681 14.9981 2.56201 14.8706 2.56201 14.7431C2.56201 14.3148 2.56201 13.889 2.56201 13.4606C2.56201 12.4994 2.56201 11.5407 2.56201 10.5795C2.56201 10.4112 2.55421 10.2378 2.55681 10.0695C2.85077 10.0593 3.14734 10.0746 3.43609 10.0746C3.71965 10.0746 4.01101 10.0593 4.29717 10.067C4.29717 10.1282 4.29717 10.1919 4.29717 10.2531C4.29717 11.4668 4.29717 12.6779 4.29717 13.8915C4.29717 13.9808 4.29717 14.0726 4.29717 14.1618C4.29717 14.2026 4.29977 14.2408 4.30757 14.2791C4.30757 14.3913 4.30757 14.5009 4.30757 14.6131C4.30757 14.7814 4.31538 14.9497 4.31278 15.118C4.01101 15.118 3.70924 15.118 3.40748 15.118C3.12652 15.118 2.84297 15.1332 2.55941 15.1256ZM11.3548 20.4596C11.3054 20.4494 11.256 20.4366 11.2092 20.4213C11.1675 20.401 11.1285 20.3806 11.0895 20.3551C11.0869 20.3525 11.0843 20.35 11.0791 20.35C11.0583 20.3321 11.0401 20.3168 11.0219 20.2964C11.0063 20.2811 10.9906 20.2658 10.975 20.248C10.975 20.2454 10.9724 20.2454 10.9724 20.2429C10.9438 20.1944 10.9178 20.1511 10.8918 20.1026C10.8788 20.0593 10.8658 20.0185 10.858 19.9751C10.8554 19.9267 10.8554 19.8808 10.858 19.8324C10.8684 19.7865 10.8814 19.7406 10.897 19.6947C10.9178 19.6539 10.9386 19.6156 10.9646 19.5774C10.9672 19.5748 10.9698 19.5723 10.9698 19.5672C10.988 19.5468 11.0037 19.5289 11.0245 19.5111C11.0401 19.4958 11.0557 19.4805 11.0739 19.4652C11.0765 19.4652 11.0765 19.4627 11.0791 19.4627C11.1285 19.4346 11.1727 19.4091 11.2222 19.3836C11.2664 19.3709 11.3132 19.3581 11.36 19.3479C11.5708 19.3326 11.7893 19.3454 12 19.3454C12.2133 19.3454 12.4292 19.3326 12.6426 19.3479C12.692 19.3581 12.7414 19.3709 12.7882 19.3862C12.8299 19.4066 12.8689 19.427 12.9079 19.4525C12.9105 19.455 12.9131 19.4576 12.9183 19.4576C12.9391 19.4754 12.9573 19.4907 12.9755 19.5111C12.9911 19.5264 13.0068 19.5417 13.0224 19.5595C13.0224 19.5621 13.025 19.5621 13.025 19.5646C13.0536 19.6131 13.0796 19.6564 13.1056 19.7049C13.1186 19.7482 13.1316 19.789 13.1394 19.8324C13.142 19.8808 13.142 19.9267 13.1394 19.9751C13.129 20.021 13.116 20.0669 13.1004 20.1128C13.0796 20.1536 13.0588 20.1919 13.0328 20.2301C13.0302 20.2327 13.0276 20.2352 13.0276 20.2403C13.0094 20.2607 12.9937 20.2786 12.9729 20.2964C12.9573 20.3117 12.9417 20.327 12.9235 20.3423C12.9209 20.3423 12.9209 20.3449 12.9183 20.3449C12.8689 20.3729 12.8247 20.3984 12.7752 20.4239C12.7284 20.4392 12.6842 20.4494 12.6374 20.4596C12.6165 20.4596 12.5957 20.4621 12.5749 20.4621C12.3616 20.4621 12.1483 20.4621 11.935 20.4621C11.7425 20.4621 11.5474 20.4723 11.3548 20.4596ZM19.7158 15.1256C19.7132 14.9981 19.7184 14.8706 19.7184 14.7431C19.7184 14.3148 19.7184 13.889 19.7184 13.4606C19.7184 12.4994 19.7184 11.5407 19.7184 10.5795C19.7184 10.4112 19.7106 10.2378 19.7132 10.067C20.002 10.0568 20.2934 10.0746 20.5821 10.0746C20.8657 10.0746 21.1596 10.0593 21.4458 10.067C21.4484 10.1945 21.4432 10.3219 21.4432 10.4494C21.4432 10.8778 21.4432 11.3036 21.4432 11.7319C21.4432 12.6932 21.4432 13.6519 21.4432 14.6131C21.4432 14.7814 21.451 14.9497 21.4484 15.118C21.1492 15.118 20.8527 15.118 20.5535 15.118C20.2777 15.118 19.9968 15.1332 19.7158 15.1256Z" fill="white"/>
</svg>
