<svg width="24" height="24" viewBox="0 0 24 24" fill="none" xmlns="http://www.w3.org/2000/svg">
<path d="M17.0004 3.3395C18.9092 4.44157 20.4005 6.14341 21.2424 8.18045C22.0842 10.2175 22.2295 12.4756 21.6556 14.6037C21.0817 16.7318 19.8208 18.6107 18.0689 19.9483C16.3171 21.2859 14.1723 22.0073 11.9682 22.0002C9.76407 21.9931 7.62402 21.2581 5.88075 19.9093C4.13747 18.5605 2.88865 16.6735 2.32842 14.5418C1.76819 12.41 1.92794 10.1529 2.78284 8.12127C3.63775 6.08967 5.1399 4.39743 7.05577 3.30762L7.89633 4.78532C6.30616 5.68986 5.05937 7.09442 4.34981 8.78065C3.64024 10.4669 3.50764 12.3403 3.97263 14.1097C4.43762 15.879 5.47415 17.4452 6.92107 18.5647C8.36798 19.6842 10.1442 20.2943 11.9737 20.3002C13.8031 20.306 15.5832 19.7073 17.0373 18.5971C18.4913 17.4869 19.5379 15.9274 20.0142 14.1611C20.4905 12.3947 20.37 10.5205 19.6712 8.82977C18.9725 7.13903 17.7347 5.7265 16.1504 4.81178L17.0004 3.3395Z" fill="white"/>
<rect x="11.2354" y="2" width="1.5385" height="10.7695" fill="white"/>
</svg>
