<svg width="16" height="16" viewBox="0 0 16 16" fill="none" xmlns="http://www.w3.org/2000/svg">
<g clip-path="url(#clip0_593_28030)">
<path d="M2 6.6665C2 11.3332 8 15.3332 8 15.3332C8 15.3332 14 11.3332 14 6.6665C14 5.0752 13.3679 3.54908 12.2426 2.42386C11.1174 1.29864 9.5913 0.666504 8 0.666504C6.4087 0.666504 4.88258 1.29864 3.75736 2.42386C2.63214 3.54908 2 5.0752 2 6.6665Z" stroke="#FF4D2F" stroke-width="1.6" stroke-linecap="round" stroke-linejoin="round"/>
<path d="M8 8.6665C6.89543 8.6665 6 7.77107 6 6.6665C6 5.56193 6.89543 4.6665 8 4.6665C9.10457 4.6665 10 5.56193 10 6.6665C10 7.77107 9.10457 8.6665 8 8.6665Z" stroke="#FF4D2F" stroke-width="1.6" stroke-linecap="round" stroke-linejoin="round"/>
</g>
<defs>
<clipPath id="clip0_593_28030">
<rect width="16" height="16" fill="white" transform="matrix(-1 0 0 1 16 0)"/>
</clipPath>
</defs>
</svg>
