<svg width="18" height="18" viewBox="0 0 18 18" fill="none" xmlns="http://www.w3.org/2000/svg">
<path fill-rule="evenodd" clip-rule="evenodd" d="M1.5 1.5V4C1.5 4.27614 1.27614 4.5 1 4.5H0.5C0.223858 4.5 0 4.27614 0 4V1.5C0 1.10218 0.158035 0.720644 0.43934 0.43934C0.720644 0.158035 1.10218 0 1.5 0H4C4.27614 0 4.5 0.223858 4.5 0.5V1C4.5 1.27614 4.27614 1.5 4 1.5H1.5ZM16.5 0C16.8978 0 17.2794 0.158035 17.5607 0.43934C17.842 0.720644 18 1.10218 18 1.5V4C18 4.27614 17.7761 4.5 17.5 4.5H17C16.7239 4.5 16.5 4.27614 16.5 4V1.5H14C13.7239 1.5 13.5 1.27614 13.5 1V0.5C13.5 0.223858 13.7239 0 14 0H16.5ZM1 13.5C1.27614 13.5 1.5 13.7239 1.5 14V16.5H4C4.27614 16.5 4.5 16.7239 4.5 17V17.5C4.5 17.7761 4.27614 18 4 18H1.5C1.10218 18 0.720644 17.842 0.43934 17.5607C0.158035 17.2794 0 16.8978 0 16.5V14C0 13.7239 0.223858 13.5 0.5 13.5H1ZM16.5 14C16.5 13.7239 16.7239 13.5 17 13.5H17.5C17.7761 13.5 18 13.7239 18 14V16.5C18 16.8978 17.842 17.2794 17.5607 17.5607C17.2794 17.842 16.8978 18 16.5 18H14C13.7239 18 13.5 17.7761 13.5 17.5V17C13.5 16.7239 13.7239 16.5 14 16.5H16.5V14Z" fill="#ff4d2f"/>
<path fill-rule="evenodd" clip-rule="evenodd" d="M3.5 4C3.5 3.72386 3.72386 3.5 4 3.5H7.5C7.77614 3.5 8 3.72386 8 4V7.5C8 7.77614 7.77614 8 7.5 8H4C3.72386 8 3.5 7.77614 3.5 7.5V4ZM5 6.5V5H6.5V6.5H5Z" fill="#ff4d2f"/>
<path fill-rule="evenodd" clip-rule="evenodd" d="M14 3.5C14.2761 3.5 14.5 3.72386 14.5 4V7.5C14.5 7.77614 14.2761 8 14 8H10.5C10.2239 8 10 7.77614 10 7.5V4C10 3.72386 10.2239 3.5 10.5 3.5H14ZM11.5 6.5V5H13V6.5H11.5Z" fill="#ff4d2f"/>
<path fill-rule="evenodd" clip-rule="evenodd" d="M4 14.5C3.72386 14.5 3.5 14.2761 3.5 14V10.5C3.5 10.2239 3.72386 10 4 10H7.5C7.77614 10 8 10.2239 8 10.5V14C8 14.2761 7.77614 14.5 7.5 14.5H4ZM5 13V11.5H6.5V13H5Z" fill="#ff4d2f"/>
<path d="M11.125 11.125V11.75C11.125 12.0261 10.9011 12.25 10.625 12.25H10.5C10.2239 12.25 10 12.0261 10 11.75V10.5C10 10.2239 10.2239 10 10.5 10H11.75C12.0261 10 12.25 10.2239 12.25 10.5V10.625C12.25 10.9011 12.0261 11.125 11.75 11.125H11.125Z" fill="#ff4d2f"/>
<path d="M10 13.875C10 13.5989 10.2239 13.375 10.5 13.375H10.625C10.9011 13.375 11.125 13.5989 11.125 13.875V14C11.125 14.2761 10.9011 14.5 10.625 14.5H10.5C10.2239 14.5 10 14.2761 10 14V13.875Z" fill="#ff4d2f"/>
<path d="M14 10C14.2761 10 14.5 10.2239 14.5 10.5V14C14.5 14.2761 14.2761 14.5 14 14.5H12.75C12.4739 14.5 12.25 14.2761 12.25 14V13.875C12.25 13.5989 12.4739 13.375 12.75 13.375H13.375V10.5C13.375 10.2239 13.5989 10 13.875 10H14Z" fill="#ff4d2f"/>
</svg>
