<svg width="24" height="24" viewBox="0 0 24 24" fill="none" xmlns="http://www.w3.org/2000/svg">
<path fill-rule="evenodd" clip-rule="evenodd" d="M4.5 4.5V7C4.5 7.27614 4.27614 7.5 4 7.5H3.5C3.22386 7.5 3 7.27614 3 7V4.5C3 4.10218 3.15804 3.72064 3.43934 3.43934C3.72064 3.15804 4.10218 3 4.5 3H7C7.27614 3 7.5 3.22386 7.5 3.5V4C7.5 4.27614 7.27614 4.5 7 4.5H4.5ZM19.5 3C19.8978 3 20.2794 3.15804 20.5607 3.43934C20.842 3.72064 21 4.10218 21 4.5V7C21 7.27614 20.7761 7.5 20.5 7.5H20C19.7239 7.5 19.5 7.27614 19.5 7V4.5H17C16.7239 4.5 16.5 4.27614 16.5 4V3.5C16.5 3.22386 16.7239 3 17 3H19.5ZM4 16.5C4.27614 16.5 4.5 16.7239 4.5 17V19.5H7C7.27614 19.5 7.5 19.7239 7.5 20V20.5C7.5 20.7761 7.27614 21 7 21H4.5C4.10218 21 3.72064 20.842 3.43934 20.5607C3.15804 20.2794 3 19.8978 3 19.5V17C3 16.7239 3.22386 16.5 3.5 16.5H4ZM19.5 17C19.5 16.7239 19.7239 16.5 20 16.5H20.5C20.7761 16.5 21 16.7239 21 17V19.5C21 19.8978 20.842 20.2794 20.5607 20.5607C20.2794 20.842 19.8978 21 19.5 21H17C16.7239 21 16.5 20.7761 16.5 20.5V20C16.5 19.7239 16.7239 19.5 17 19.5H19.5V17Z" fill="white"/>
<path fill-rule="evenodd" clip-rule="evenodd" d="M6.5 7C6.5 6.72386 6.72386 6.5 7 6.5H10.5C10.7761 6.5 11 6.72386 11 7V10.5C11 10.7761 10.7761 11 10.5 11H7C6.72386 11 6.5 10.7761 6.5 10.5V7ZM8 9.5V8H9.5V9.5H8Z" fill="white"/>
<path fill-rule="evenodd" clip-rule="evenodd" d="M17 6.5C17.2761 6.5 17.5 6.72386 17.5 7V10.5C17.5 10.7761 17.2761 11 17 11H13.5C13.2239 11 13 10.7761 13 10.5V7C13 6.72386 13.2239 6.5 13.5 6.5H17ZM14.5 9.5V8H16V9.5H14.5Z" fill="white"/>
<path fill-rule="evenodd" clip-rule="evenodd" d="M7 17.5C6.72386 17.5 6.5 17.2761 6.5 17V13.5C6.5 13.2239 6.72386 13 7 13H10.5C10.7761 13 11 13.2239 11 13.5V17C11 17.2761 10.7761 17.5 10.5 17.5H7ZM8 16V14.5H9.5V16H8Z" fill="white"/>
<path d="M14.125 14.125V14.75C14.125 15.0261 13.9011 15.25 13.625 15.25H13.5C13.2239 15.25 13 15.0261 13 14.75V13.5C13 13.2239 13.2239 13 13.5 13H14.75C15.0261 13 15.25 13.2239 15.25 13.5V13.625C15.25 13.9011 15.0261 14.125 14.75 14.125H14.125Z" fill="white"/>
<path d="M13 16.875C13 16.5989 13.2239 16.375 13.5 16.375H13.625C13.9011 16.375 14.125 16.5989 14.125 16.875V17C14.125 17.2761 13.9011 17.5 13.625 17.5H13.5C13.2239 17.5 13 17.2761 13 17V16.875Z" fill="white"/>
<path d="M17 13C17.2761 13 17.5 13.2239 17.5 13.5V17C17.5 17.2761 17.2761 17.5 17 17.5H15.75C15.4739 17.5 15.25 17.2761 15.25 17V16.875C15.25 16.5989 15.4739 16.375 15.75 16.375H16.375V13.5C16.375 13.2239 16.5989 13 16.875 13H17Z" fill="white"/>
</svg>
