<svg width="24" height="24" viewBox="0 0 24 24" fill="none" xmlns="http://www.w3.org/2000/svg">
<path fill-rule="evenodd" clip-rule="evenodd" d="M5.67901 6.40569L11.219 6.40569V3.24924C11.219 3.11159 11.3325 3 11.4724 3H12.1903C12.3302 3 12.4436 3.11159 12.4436 3.24924V6.40569H18.321C18.4446 6.40584 18.5656 6.43985 18.6701 6.50372C18.7744 6.5675 18.858 6.65842 18.9113 6.76595L18.9116 6.76637L22.9344 15.5182C22.9344 15.5182 22.9346 15.5189 22.9351 15.5205C22.9356 15.5221 22.9364 15.5247 22.9374 15.5284C22.9395 15.5366 22.9418 15.5476 22.9443 15.5616C22.9491 15.5896 22.9539 15.626 22.9584 15.669C22.9674 15.7547 22.975 15.8621 22.9812 15.9708C22.9935 16.1884 22.9999 16.4066 23 16.4585C22.9999 17.6626 22.5073 18.8176 21.63 19.6694C20.7526 20.5212 19.5624 21 18.3211 21C17.0798 21 15.8896 20.5212 15.0122 19.6694C14.1349 18.8176 13.6423 17.6626 13.6422 16.4585C13.6423 16.4066 13.6486 16.1884 13.661 15.9708C13.6672 15.8621 13.6748 15.7547 13.6838 15.669C13.6883 15.626 13.6931 15.5896 13.6979 15.5616C13.7004 15.5476 13.7027 15.5366 13.7048 15.5284C13.7063 15.5227 13.7073 15.5197 13.7077 15.5187C13.7078 15.5183 13.7078 15.5183 13.7078 15.5183L13.7079 15.5182L17.2697 7.6773H6.73034L10.2921 15.5182L10.2922 15.5183C10.2922 15.5183 10.2922 15.5183 10.2923 15.5185C10.2926 15.5194 10.2936 15.5224 10.2952 15.5284C10.2973 15.5366 10.2996 15.5476 10.3021 15.5616C10.3069 15.5896 10.3117 15.626 10.3162 15.669C10.3252 15.7547 10.3328 15.8621 10.339 15.9708C10.3514 16.1884 10.3577 16.4066 10.3578 16.4585C10.3577 17.6626 9.86507 18.8176 8.98778 19.6694C8.1104 20.5212 6.92018 21 5.6789 21C4.43763 21 3.24741 20.5212 2.37003 19.6694C1.49271 18.8176 1.00003 17.6625 1 16.4584C1.00015 16.4063 1.00646 16.1883 1.01883 15.9708C1.02501 15.8621 1.03264 15.7547 1.04163 15.669C1.04613 15.626 1.05087 15.5896 1.05575 15.5616C1.05819 15.5476 1.06051 15.5366 1.06262 15.5284C1.0645 15.5211 1.06565 15.5182 1.06565 15.5182L1.06588 15.5178L5.08845 6.76637L5.08864 6.76599C5.14199 6.65844 5.22555 6.5675 5.32989 6.50372C5.43436 6.43985 5.55537 6.40584 5.67901 6.40569ZM8.64681 15.5141L5.6789 8.48932L2.711 15.5141H8.64681ZM5.67917 19.7524H5.67926C6.43745 19.7492 7.17246 19.4976 7.76519 19.0381C8.06799 18.8033 8.32052 18.44 8.51751 18.0523C8.71508 17.6634 8.86017 17.2432 8.94492 16.8878L8.96926 16.7857H2.36387L2.3882 16.8878C2.47345 17.2452 2.61973 17.6672 2.819 18.0575C3.01769 18.4466 3.27245 18.8108 3.57785 19.0457C4.17576 19.5057 4.91665 19.7547 5.67917 19.7524ZM18.3211 8.48932L15.3532 15.5141H21.289L18.3211 8.48932ZM21.6118 16.8878L21.6361 16.7857H15.0061L15.0304 16.8878C15.1156 17.2452 15.2619 17.6672 15.4612 18.0575C15.6599 18.4466 15.9146 18.8108 16.22 19.0457C16.8179 19.5056 17.5587 19.7547 18.3211 19.7524C19.0835 19.7547 19.8243 19.5056 20.4222 19.0457C20.7275 18.8108 20.9823 18.4466 21.181 18.0575C21.3803 17.6672 21.5266 17.2452 21.6118 16.8878Z" fill="white"/>
</svg>
